<svg xmlns="http://www.w3.org/2000/svg" xmlns:xlink="http://www.w3.org/1999/xlink" id="bug" style="enable-background:new 0 0 300 300;" version="1.1" viewBox="0 0 300 300" xml:space="preserve"><g><polyline points="   203.192,81.13 229.631,76.697 246,58  " style="fill:none;stroke:#fff;stroke-width:8;stroke-linecap:round;stroke-linejoin:round;stroke-miterlimit:10;"/><polyline points="   228.079,118.299 237.631,116.697 254,98  " style="fill:none;stroke:#fff;stroke-width:8;stroke-linecap:round;stroke-linejoin:round;stroke-miterlimit:10;"/><polyline points="   235.48,160.771 250.57,177.307 270,182  " style="fill:none;stroke:#fff;stroke-width:8;stroke-linecap:round;stroke-linejoin:round;stroke-miterlimit:10;"/><path d="   M235.48,160.771" style="fill:none;stroke:#fff;stroke-width:8;stroke-linecap:round;stroke-linejoin:round;stroke-miterlimit:10;"/><path d="   M222,146" style="fill:none;stroke:#fff;stroke-width:8;stroke-linecap:round;stroke-linejoin:round;stroke-miterlimit:10;"/><polyline points="   104.808,81.13 78.369,76.697 62,58  " style="fill:none;stroke:#fff;stroke-width:8;stroke-linecap:round;stroke-linejoin:round;stroke-miterlimit:10;"/><polyline points="   80.742,118.436 70.369,116.697 54,98  " style="fill:none;stroke:#fff;stroke-width:8;stroke-linecap:round;stroke-linejoin:round;stroke-miterlimit:10;"/><polyline points="   72.516,160.775 57.43,177.307 38,182  " style="fill:none;stroke:#fff;stroke-width:8;stroke-linecap:round;stroke-linejoin:round;stroke-miterlimit:10;"/><path d="   M127.964,67.962C98.393,81.521,74,116.717,74,158c0,53.02,40.236,96,80,96s80-42.98,80-96c0-41.707-24.897-77.201-54.876-90.449" style="fill-rule:evenodd;clip-rule:evenodd;fill:none;stroke:#fff;stroke-width:8;stroke-linecap:round;stroke-linejoin:round;stroke-miterlimit:10;"/><path d="   M125.274,66.769" style="fill-rule:evenodd;clip-rule:evenodd;fill:none;stroke:#fff;stroke-width:8;stroke-linecap:round;stroke-linejoin:round;stroke-miterlimit:10;"/><path d="   M154,62" style="fill-rule:evenodd;clip-rule:evenodd;fill:none;stroke:#fff;stroke-width:8;stroke-linecap:round;stroke-linejoin:round;stroke-miterlimit:10;"/><path d="   M125.274,66.769C113.573,71.144,106,78.126,106,85.992C106,99.243,143.651,122,154,122s48-22.757,48-36.008   c0-7.868-7.576-14.851-19.281-19.226" style="fill-rule:evenodd;clip-rule:evenodd;fill:none;stroke:#fff;stroke-width:8;stroke-linecap:round;stroke-linejoin:round;stroke-miterlimit:10;"/><ellipse cx="154" cy="62" rx="32" ry="8" style="fill-rule:evenodd;clip-rule:evenodd;fill:none;stroke:#fff;stroke-width:8;stroke-linecap:round;stroke-linejoin:round;stroke-miterlimit:10;"/><line style="fill:none;stroke:#fff;stroke-width:8;stroke-linecap:round;stroke-linejoin:round;stroke-miterlimit:10;" x1="154" x2="154" y1="250" y2="122"/><circle cx="198" cy="138" r="8" style="fill-rule:evenodd;clip-rule:evenodd;fill:none;stroke:#fff;stroke-width:8;stroke-linecap:round;stroke-linejoin:round;stroke-miterlimit:10;"/><circle cx="190" cy="194" r="8" style="fill-rule:evenodd;clip-rule:evenodd;fill:none;stroke:#fff;stroke-width:8;stroke-linecap:round;stroke-linejoin:round;stroke-miterlimit:10;"/><circle cx="130" cy="194" r="8" style="fill-rule:evenodd;clip-rule:evenodd;fill:none;stroke:#fff;stroke-width:8;stroke-linecap:round;stroke-linejoin:round;stroke-miterlimit:10;"/><circle cx="102" cy="150" r="8" style="fill-rule:evenodd;clip-rule:evenodd;fill:none;stroke:#fff;stroke-width:8;stroke-linecap:round;stroke-linejoin:round;stroke-miterlimit:10;"/></g><g/><g/><g/><g/><g/><g/><g/><g/><g/><g/><g/><g/><g/><g/><g/></svg>