<svg xmlns="http://www.w3.org/2000/svg" xmlns:xlink="http://www.w3.org/1999/xlink" viewBox="0 0 337.45 68.69"><defs><style>.cls-1{fill:url(#Безымянный_градиент_251);}.cls-2{fill:#fff;}</style><linearGradient id="Безымянный_градиент_251" y1="34.34" x2="337.45" y2="34.34" gradientUnits="userSpaceOnUse"><stop offset="0" stop-color="#00c864"/><stop offset="1" stop-color="#00c896"/></linearGradient></defs><title>Ресурс 1</title><g id="Слой_2" data-name="Слой 2"><g id="Layer_1" data-name="Layer 1"><path class="cls-1" d="M303.11,0H34.34A34.35,34.35,0,0,0,0,34.34V68.69H303.11a34.35,34.35,0,0,0,0-68.69Z"/><path class="cls-2" d="M66.7,19.41A14.94,14.94,0,1,0,81.63,34.34,15,15,0,0,0,66.7,19.41Zm0,24.89a10,10,0,1,1,10-10A10,10,0,0,1,66.7,44.3Z"/><path class="cls-2" d="M300,27.76c0-2.36,2.93-3.37,6.2-3.37a11.35,11.35,0,0,1,7.16,2.79l2.87-4.06c-2.65-2.51-6.32-3.67-10.4-3.71-5.16-.05-11,2.23-11,8.35,0,11.64,17.15,6.17,17.15,12.81,0,2.58-3,3.73-5.8,3.73a14.49,14.49,0,0,1-9.39-3.19l-2.87,4.06c2.87,2.65,7.3,4.1,11.89,4.1,5.52,0,11.4-2.59,11.4-8.7C317.21,28.12,300,34.08,300,27.76Z"/><path class="cls-2" d="M116.22,19.41a10.43,10.43,0,0,0-8.88,4.84,9.66,9.66,0,0,0-8.54-4.84c-3.12,0-5.56,2-7.22,4V19.91h-5V48.78h5V30.61a6.23,6.23,0,0,1,12.45,0V48.78h5V30.61a6.22,6.22,0,0,1,12.44,0V48.78h5V30.61C126.43,24.44,122.4,19.41,116.22,19.41Z"/><path class="cls-2" d="M226.7,19.41a10.87,10.87,0,0,0-9,4.47v-4h-5V48.78h5V31.86a7.47,7.47,0,1,1,14.94,0V48.78h5V31.86C237.65,25,233.56,19.41,226.7,19.41Z"/><path class="cls-2" d="M192.86,19.41a14.94,14.94,0,1,0,13.39,21.53H200.3a9.94,9.94,0,0,1-17.17-4.48h24.51a16.4,16.4,0,0,0,.15-2.12A15,15,0,0,0,192.86,19.41Zm0,5a10,10,0,0,1,9.72,7.84H183.13A10,10,0,0,1,192.86,24.39Z"/><path class="cls-2" d="M249.33,11.2l-5,2.42V36.09c0,8.87,5.81,12.69,14.69,12.69v-5c-6.13,0-9.71-2.91-9.71-7.71V24.39H259V19.91h-9.71Z"/><path class="cls-2" d="M162.74,19.41a10.43,10.43,0,0,0-8.88,4.84,9.66,9.66,0,0,0-8.54-4.84c-3.12,0-5.56,2-7.22,4V19.91h-5V48.78h5V30.61a6.23,6.23,0,0,1,12.45,0V48.78h5V30.61a6.22,6.22,0,0,1,12.44,0V48.78h5V30.61C173,24.44,168.92,19.41,162.74,19.41Z"/><path class="cls-2" d="M34.34,24.39a10,10,0,0,1,8.89,5.47h5.36a14.94,14.94,0,1,0,0,9H43.23a10,10,0,1,1-8.89-14.43Z"/><path class="cls-2" d="M284.42,36.83a7.47,7.47,0,1,1-14.93,0V19.91h-5V36.83c0,6.86,4.09,12.45,10.95,12.45a10.87,10.87,0,0,0,9-4.47v4h5V19.91h-5Z"/></g></g></svg>