<?xml version="1.0" encoding="utf-8"?>
<!-- Generator: Adobe Illustrator 24.0.2, SVG Export Plug-In . SVG Version: 6.00 Build 0)  -->
<svg version="1.1" id="Layer_1" width="18px" height="16px" xmlns="http://www.w3.org/2000/svg" xmlns:xlink="http://www.w3.org/1999/xlink" x="0px" y="0px"
	 viewBox="0 0 8.4 7.2" style="enable-background:new 0 0 8.4 7.2;" xml:space="preserve">
<style type="text/css">
	.st0{fill:none;stroke:#707070;stroke-width:0.3125;stroke-linecap:round;stroke-linejoin:round;stroke-miterlimit:1.5625;}
</style>
<g>
	<g>
		<g>
			<path fill="#707070" d="M4.3,4.3C4.4,4.3,4.4,4.3,4.3,4.3l0.1,0.1c0.1,0,0.2,0,0.2,0.1c0,0,0,0,0,0.1c0,0,0,0.1-0.1,0.1c0,0,0,0,0,0
				c-0.1,0-0.1-0.1-0.2-0.1v0.3C4.6,4.9,4.7,5,4.7,5.2c0,0.2-0.1,0.3-0.3,0.3v0.1c0,0,0,0.1-0.1,0.1c0,0-0.1,0-0.1-0.1V5.5
				C4.2,5.5,4.1,5.4,4,5.4c0,0,0,0,0-0.1c0,0,0-0.1,0.1-0.1c0,0,0,0,0.1,0c0.1,0.1,0.1,0.1,0.2,0.1V5C4.1,4.9,3.9,4.9,3.9,4.7
				c0-0.2,0.1-0.3,0.3-0.3L4.3,4.3C4.3,4.3,4.3,4.3,4.3,4.3z M4.3,4.8V4.5c-0.1,0-0.2,0.1-0.2,0.1C4.1,4.7,4.2,4.8,4.3,4.8z M4.4,5
				v0.3c0.1,0,0.2-0.1,0.2-0.1C4.6,5.1,4.5,5.1,4.4,5z"/>
		</g>
		<path class="st0" d="M7.2,7h0.7c0.2,0,0.3-0.1,0.3-0.3V3.2c0-0.2-0.1-0.3-0.3-0.3H0.7c-0.2,0-0.3,0.1-0.3,0.3v3.4
			C0.4,6.9,0.5,7,0.7,7h5.6"/>
		<circle class="st0" cx="4.3" cy="5" r="1.2"/>
	</g>
	<g>
		<path class="st0" d="M7.1,0.4c0-0.2-0.2-0.2-0.4-0.2L0.4,1.9c-0.2,0-0.2,0.2-0.2,0.4"/>
		<path class="st0" d="M7.8,2.9L7.1,0.4c0-0.2-0.2-0.2-0.4-0.2L0.4,1.9c-0.2,0-0.2,0.2-0.2,0.4l0.2,0.8"/>
		<line class="st0" x1="6.6" y1="2.3" x2="4.2" y2="2.9"/>
		<polyline class="st0" points="4.6,1.7 7.3,1 7.5,2 7.1,2.2 		"/>
		<line class="st0" x1="0.3" y1="2.8" x2="3.7" y2="1.9"/>
	</g>
</g>
</svg>
